<?xml version="1.0" encoding="iso-8859-1"?>
<!-- Generator: Adobe Illustrator 19.0.0, SVG Export Plug-In . SVG Version: 6.00 Build 0)  -->
<svg version="1.1" id="Layer_1" xmlns="http://www.w3.org/2000/svg" xmlns:xlink="http://www.w3.org/1999/xlink" x="0px" y="0px"
	 viewBox="0 0 512 512" style="enable-background:new 0 0 512 512;" xml:space="preserve">
<polygon style="fill:#FA9647;" points="397.14,313.053 355.097,206.452 333.075,355.097 355.097,503.742 397.14,397.14 
	503.742,355.097 "/>
<polygon style="fill:#FBC566;" points="313.053,313.053 206.452,355.097 313.053,397.14 355.097,503.742 355.097,206.452 "/>
<path style="fill:#FEECCC;" d="M355.097,327.57l-11.011,27.527l11.011,27.527c15.203,0,27.527-12.324,27.527-27.527
	C382.624,339.894,370.299,327.57,355.097,327.57z"/>
<path style="fill:#FFFFFF;" d="M327.57,355.097c0,15.203,12.324,27.527,27.527,27.527V327.57
	C339.894,327.57,327.57,339.894,327.57,355.097z"/>
<polygon style="fill:#FA9647;" points="198.947,114.86 156.903,8.258 134.882,156.903 156.903,305.548 198.947,198.947 
	305.548,156.903 "/>
<polygon style="fill:#FBC566;" points="114.86,114.86 8.258,156.903 114.86,198.947 156.903,305.548 156.903,8.258 "/>
<path style="fill:#FEECCC;" d="M156.903,129.376l-11.011,27.527l11.011,27.527c15.203,0,27.527-12.324,27.527-27.527
	S172.106,129.376,156.903,129.376z"/>
<path style="fill:#FFFFFF;" d="M129.376,156.903c0,15.203,12.324,27.527,27.527,27.527v-55.054
	C141.701,129.376,129.376,141.701,129.376,156.903z"/>
<polygon style="fill:#FBC566;" points="450.441,61.559 429.419,8.258 407.398,82.581 429.419,156.903 450.441,103.602 
	503.742,82.581 "/>
<polygon style="fill:#FCD999;" points="408.398,61.559 355.097,82.581 408.398,103.602 429.419,156.903 429.419,8.258 "/>
<polygon style="fill:#FBC566;" points="103.602,408.398 82.581,355.097 60.559,429.419 82.581,503.742 103.602,450.441 
	156.903,429.419 "/>
<polygon style="fill:#FCD999;" points="61.559,408.398 8.258,429.419 61.559,450.441 82.581,503.742 82.581,355.097 "/>
<path d="M506.771,347.415l-103.265-40.727l-40.727-103.265c-1.244-3.155-4.291-5.229-7.682-5.229s-6.438,2.073-7.682,5.229
	l-40.727,103.265l-103.265,40.727c-3.155,1.244-5.229,4.291-5.229,7.682s2.073,6.438,5.229,7.682l103.265,40.727l40.727,103.265
	c1.244,3.155,4.291,5.229,7.682,5.229s6.438-2.073,7.682-5.229l40.727-103.265l103.265-40.727c3.155-1.244,5.229-4.291,5.229-7.682
	S509.927,348.659,506.771,347.415z M394.11,389.458c-2.128,0.839-3.813,2.524-4.653,4.653l-34.36,87.123l-34.361-87.123
	c-0.839-2.128-2.524-3.813-4.653-4.653l-87.123-34.361l87.123-34.361c2.128-0.839,3.813-2.524,4.653-4.653l34.361-87.123
	l34.361,87.123c0.839,2.128,2.524,3.813,4.653,4.653l87.123,34.361L394.11,389.458z"/>
<path d="M355.097,319.312c-1.66,0-3.359,0.121-5.048,0.361c-4.516,0.64-7.658,4.818-7.018,9.335c0.64,4.516,4.824,7.662,9.335,7.018
	c0.925-0.131,1.844-0.197,2.733-0.197c10.624,0,19.269,8.645,19.269,19.269c0,10.624-8.645,19.269-19.269,19.269
	c-10.624,0-19.269-8.645-19.269-19.269c0-0.889,0.067-1.808,0.197-2.733c0.64-4.516-2.503-8.694-7.018-9.335
	c-4.516-0.64-8.694,2.503-9.335,7.018c-0.239,1.689-0.361,3.388-0.361,5.048c0,19.731,16.054,35.785,35.785,35.785
	c19.731,0,35.785-16.054,35.785-35.785C390.882,335.366,374.828,319.312,355.097,319.312z"/>
<path d="M5.229,164.585l103.265,40.727l40.727,103.265c1.244,3.155,4.291,5.229,7.682,5.229s6.438-2.073,7.682-5.229l40.727-103.265
	l103.265-40.727c3.155-1.244,5.229-4.291,5.229-7.682s-2.073-6.438-5.229-7.682l-103.265-40.727L164.585,5.229
	C163.341,2.073,160.295,0,156.903,0s-6.438,2.073-7.682,5.229l-40.727,103.265L5.229,149.221C2.073,150.465,0,153.512,0,156.903
	S2.073,163.341,5.229,164.585z M117.89,122.542c2.128-0.839,3.813-2.524,4.653-4.653l34.36-87.123l34.361,87.123
	c0.839,2.128,2.524,3.813,4.653,4.653l87.123,34.361l-87.123,34.361c-2.128,0.839-3.813,2.524-4.653,4.653l-34.361,87.123
	l-34.361-87.123c-0.839-2.128-2.524-3.813-4.653-4.653l-87.123-34.361L117.89,122.542z"/>
<path d="M156.903,192.688c19.731,0,35.785-16.054,35.785-35.785s-16.054-35.785-35.785-35.785c-1.66,0-3.359,0.121-5.048,0.361
	c-4.516,0.64-7.658,4.818-7.018,9.335c0.64,4.517,4.822,7.661,9.335,7.018c0.925-0.131,1.844-0.197,2.733-0.197
	c10.624,0,19.269,8.645,19.269,19.269c0,10.624-8.645,19.269-19.269,19.269c-10.624,0-19.269-8.645-19.269-19.269
	c0-0.889,0.067-1.808,0.197-2.733c0.64-4.516-2.503-8.694-7.018-9.335c-4.518-0.642-8.694,2.503-9.335,7.018
	c-0.239,1.689-0.361,3.388-0.361,5.048C121.118,176.634,137.172,192.688,156.903,192.688z"/>
<path d="M352.068,90.263l49.965,19.705l19.705,49.965c1.244,3.155,4.291,5.229,7.682,5.229s6.438-2.073,7.682-5.229l19.705-49.965
	l49.965-19.705c3.156-1.244,5.229-4.291,5.229-7.682c0-3.391-2.073-6.438-5.229-7.682l-49.965-19.705L437.102,5.229
	C435.857,2.073,432.811,0,429.419,0s-6.438,2.073-7.682,5.229l-19.705,49.965l-49.965,19.705c-3.156,1.244-5.229,4.291-5.229,7.682
	C346.839,85.972,348.912,89.019,352.068,90.263z M411.428,69.241c2.128-0.839,3.813-2.524,4.653-4.653l13.338-33.822l13.34,33.822
	c0.839,2.128,2.524,3.813,4.653,4.653l33.822,13.34l-33.823,13.34c-2.128,0.839-3.813,2.524-4.653,4.653l-13.338,33.822
	l-13.34-33.823c-0.839-2.128-2.524-3.813-4.653-4.653l-33.822-13.338L411.428,69.241z"/>
<path d="M159.932,421.737l-49.965-19.705l-19.705-49.965c-1.244-3.156-4.291-5.229-7.682-5.229c-3.391,0-6.438,2.073-7.682,5.229
	l-19.705,49.965L5.229,421.737C2.073,422.981,0,426.028,0,429.419s2.073,6.438,5.229,7.682l49.965,19.705l19.705,49.965
	c1.244,3.156,4.291,5.229,7.682,5.229c3.391,0,6.438-2.073,7.682-5.229l19.705-49.965l49.965-19.705
	c3.155-1.244,5.229-4.291,5.229-7.682S163.088,422.981,159.932,421.737z M100.572,442.759c-2.128,0.839-3.813,2.524-4.653,4.653
	l-13.338,33.822l-13.34-33.823c-0.839-2.128-2.524-3.813-4.653-4.653l-33.822-13.338l33.822-13.34
	c2.128-0.839,3.813-2.524,4.653-4.653l13.34-33.822l13.34,33.822c0.839,2.128,2.524,3.813,4.653,4.653l33.822,13.34L100.572,442.759
	z"/>
<g>
</g>
<g>
</g>
<g>
</g>
<g>
</g>
<g>
</g>
<g>
</g>
<g>
</g>
<g>
</g>
<g>
</g>
<g>
</g>
<g>
</g>
<g>
</g>
<g>
</g>
<g>
</g>
<g>
</g>
</svg>
